<?xml version="1.0" standalone="no"?><svg xmlns="http://www.w3.org/2000/svg" viewBox="0 0 1440 320"><path fill="#0099ff" fill-opacity="1" d="M0,224L24,213.3C48,203,96,181,144,192C192,203,240,245,288,240C336,235,384,181,432,154.7C480,128,528,128,576,112C624,96,672,64,720,85.3C768,107,816,181,864,213.3C912,245,960,235,1008,208C1056,181,1104,139,1152,144C1200,149,1248,203,1296,229.3C1344,256,1392,256,1416,256L1440,256L1440,320L1416,320C1392,320,1344,320,1296,320C1248,320,1200,320,1152,320C1104,320,1056,320,1008,320C960,320,912,320,864,320C816,320,768,320,720,320C672,320,624,320,576,320C528,320,480,320,432,320C384,320,336,320,288,320C240,320,192,320,144,320C96,320,48,320,24,320L0,320Z"></path></svg>