<?xml version="1.0" standalone="no"?><svg xmlns="http://www.w3.org/2000/svg" viewBox="0 0 1440 320"><path fill="#0099ff" fill-opacity="1" d="M0,64L24,85.3C48,107,96,149,144,170.7C192,192,240,192,288,170.7C336,149,384,107,432,122.7C480,139,528,213,576,224C624,235,672,181,720,154.7C768,128,816,128,864,138.7C912,149,960,171,1008,181.3C1056,192,1104,192,1152,170.7C1200,149,1248,107,1296,85.3C1344,64,1392,64,1416,64L1440,64L1440,320L1416,320C1392,320,1344,320,1296,320C1248,320,1200,320,1152,320C1104,320,1056,320,1008,320C960,320,912,320,864,320C816,320,768,320,720,320C672,320,624,320,576,320C528,320,480,320,432,320C384,320,336,320,288,320C240,320,192,320,144,320C96,320,48,320,24,320L0,320Z"></path></svg>